<svg width="40" height="44" viewBox="0 0 40 44" fill="none" xmlns="http://www.w3.org/2000/svg">
<path d="M34.9181 22.3272C33.7082 23.6338 32.4177 24.8436 31.0466 26.0212C29.1269 27.6828 27.175 29.2959 25.1909 30.8445C23.0615 29.5379 21.5291 28.8765 21.271 29.2152C21.0451 29.5217 21.9324 30.6509 23.5294 32.1189C18.1738 36.1033 12.5117 39.6199 6.43015 42.5074C5.4784 42.9591 4.47826 43.2817 3.49425 43.6366C3.23615 43.7334 2.96192 43.7334 2.849 43.7496C1.30039 43.927 0.832581 43.5076 0.897107 42.088C1.09068 37.668 2.46185 33.5223 3.8814 29.3927C4.26855 28.2635 4.67184 27.1343 5.09125 26.0051C7.23672 27.3117 8.76919 27.9893 9.0273 27.6505C9.30153 27.2795 8.01102 25.7954 5.84942 23.9403C7.39803 19.9397 9.12408 16.0037 11.1566 12.2289C15.2217 15.2455 18.8351 17.2297 19.2384 16.6812C19.6417 16.1327 16.6574 13.213 12.5439 10.1641L12.3665 10.0351C13.0763 8.82524 13.8183 7.61539 14.6087 6.4378C15.5927 4.95372 16.8026 3.59869 17.9963 2.27592C19.5933 0.517602 21.6581 -0.0792571 23.9649 0.436945C31.3531 2.08234 36.4828 6.32488 38.9025 13.6001C39.3865 15.0842 38.9509 16.536 38.1927 17.8749C37.6765 18.7783 37.1119 19.6332 36.4828 20.4398C32.579 17.5845 29.1915 15.7456 28.8043 16.2618C28.4333 16.778 31.1272 19.4396 34.9181 22.3272Z" fill="white"/>
</svg>
